<?xml version="1.0" ?><svg viewBox="0 0 64 64" xmlns="http://www.w3.org/2000/svg"><defs><style>.cls-1,.cls-2{fill:none;stroke:#000;stroke-linejoin:round;stroke-width:2px;}.cls-1{stroke-linecap:round;}</style></defs><g id="danger-deal"><circle class="cls-1" cx="43.5" cy="45.5" r="15.5"/><path class="cls-2" d="M51.99,43.2947c.1342-3.8637-3.5581-7.1278-8.2469-7.2905s-8.5985,2.8375-8.7325,6.7011A6.8777,6.8777,0,0,0,39,48.88v3.7233A1.3964,1.3964,0,0,0,40.3964,54h6.2072A1.3964,1.3964,0,0,0,48,52.6036V48.9865A6.775,6.775,0,0,0,51.99,43.2947Z"/><line class="cls-1" x1="42" x2="42" y1="51" y2="54"/><line class="cls-1" x1="45" x2="45" y1="51" y2="54"/><circle cx="47" cy="44" r="2"/><circle cx="40" cy="44" r="2"/><circle class="cls-1" cx="18.5" cy="18.5" r="15.5"/><path class="cls-1" d="M15.8153,27h-1.79a6.02,6.02,0,0,0-5.4272,3.4217"/><path class="cls-1" d="M28.4022,30.4217A6.02,6.02,0,0,0,22.975,27H21.19"/><path class="cls-1" d="M21,24.6194V28a2,2,0,0,1-2,2H18a2,2,0,0,1-2-2V24.6611"/><path class="cls-1" d="M25,14v4.5A6.5,6.5,0,0,1,18.5,25h0A6.5,6.5,0,0,1,12,18.5V14.1406"/><path class="cls-1" d="M22.5947,10H22V9.9465A2.9465,2.9465,0,0,0,19.0535,7h-5.312A3.7415,3.7415,0,0,0,10,10.7415V14H22v1a3,3,0,0,0,3,3V12.4053A2.4052,2.4052,0,0,0,22.5947,10Z"/><line class="cls-1" x1="57.5858" x2="60.4142" y1="16.5858" y2="19.4142"/><line class="cls-1" x1="60.4142" x2="57.5858" y1="16.5858" y2="19.4142"/><circle cx="18" cy="44" r="1"/><polyline class="cls-1" points="12 37 12 52 24 52"/><polyline class="cls-1" points="22 49 25 52 22 55"/><polyline class="cls-1" points="50 27 50 12 38 12"/><polyline class="cls-1" points="40 15 37 12 40 9"/></g></svg>